<svg aria-hidden="true" width="0" height="0"><symbol viewBox="25 25 50 50.19" id="instagram" xmlns="http://www.w3.org/2000/svg"><path fill-rule="evenodd" clip-rule="evenodd" d="M60.608 25H39.392C31.457 25 25 31.456 25 39.392v21.41c0 7.936 6.456 14.393 14.392 14.393h21.216C68.544 75.195 75 68.738 75 60.803V39.392C75 31.457 68.544 25 60.608 25Zm9.63 35.803c0 5.31-4.32 9.629-9.63 9.629H39.392c-5.31 0-9.63-4.32-9.63-9.63v-21.41c0-5.31 4.32-9.63 9.63-9.63h21.216c5.31 0 9.63 4.32 9.63 9.63v21.41ZM50.04 37.093c-7.196 0-13.052 5.792-13.052 12.912 0 7.12 5.855 12.913 13.052 12.913 7.196 0 13.051-5.793 13.051-12.913S57.236 37.092 50.04 37.092Zm0 21.07c-4.576 0-8.298-3.66-8.298-8.158 0-4.498 3.722-8.158 8.298-8.158 4.575 0 8.297 3.66 8.297 8.158 0 4.5-3.722 8.159-8.297 8.159Zm16.356-21.598a3.07 3.07 0 1 1-6.142 0 3.07 3.07 0 0 1 6.142 0Z"/></symbol><symbol viewBox="0 0 32 32" id="search" xmlns="http://www.w3.org/2000/svg"><path d="M12 4a7.988 7.988 0 0 1 6.517 12.624l-.787 1.106-1.106.787A7.996 7.996 0 1 1 12 4zm0-4a12 12 0 1 0 6.943 21.776l9.637 9.637a2.003 2.003 0 0 0 2.833-2.833l-9.637-9.637A11.988 11.988 0 0 0 12 0z"/></symbol><symbol viewBox="25 29 50 41.67" id="telegram" xmlns="http://www.w3.org/2000/svg"><path d="M70.737 29.368s4.626-1.804 4.24 2.576c-.128 1.804-1.285 8.116-2.184 14.944l-3.084 20.226s-.257 2.963-2.57 3.478c-2.312.516-5.78-1.803-6.423-2.318-.514-.387-9.636-6.184-12.849-9.018-.899-.773-1.927-2.32.129-4.123l13.49-12.882c1.542-1.546 3.084-5.154-3.34-.773L40.158 53.716s-2.055 1.288-5.91.129l-8.351-2.576s-3.084-1.933 2.184-3.865c12.848-6.055 28.652-12.239 42.656-18.036Z"/></symbol></svg>